# xmcd
#
# Track frame offsets:
#	150
#	14412
#	35440
#	54137
#	74080
#	95947
#	116607
#	138605
#	153592
#	179662
#
# Disc length: 2593 seconds
#
# Revision: 1
# Processed by: cddbd v1.5.1PL0 Copyright (c) Steve Scherf et al.
# Submitted via: CDex 1.50Beta5
#
DISCID=940a1f0a
DTITLE=桑名晴子 - MoonLight Island
DYEAR=1992
DGENRE=
TTITLE0=ほうろう
TTITLE1=CHOO CHOOガタゴト
TTITLE2=ウララカ
TTITLE3=DOWN TOWN
TTITLE4=あの頃のまま
TTITLE5=I LOVE YOU
TTITLE6=ムーンライト・サーファー
TTITLE7=夢で逢えたら
TTITLE8=夜の海
TTITLE9=YORU NO UMI
EXTD=
EXTT0=
EXTT1=
EXTT2=
EXTT3=
EXTT4=
EXTT5=
EXTT6=
EXTT7=
EXTT8=
EXTT9=
PLAYORDER=
